<svg xmlns="http://www.w3.org/2000/svg" viewBox="0 0 800 400">
  <defs>
    <radialGradient id="neb" cx="35%" cy="45%" r="75%">
      <stop offset="0%" stop-color="#1d3557"/>
      <stop offset="45%" stop-color="#0d1830"/>
      <stop offset="100%" stop-color="#04060b"/>
    </radialGradient>
    <radialGradient id="glow" cx="70%" cy="30%" r="40%">
      <stop offset="0%" stop-color="#c9a86a" stop-opacity="0.5"/>
      <stop offset="100%" stop-color="#c9a86a" stop-opacity="0"/>
    </radialGradient>
  </defs>
  <rect width="800" height="400" fill="url(#neb)"/>
  <rect width="800" height="400" fill="url(#glow)"/>
  <g fill="#e8e6df">
    <circle cx="80" cy="60" r="1.6"/><circle cx="200" cy="120" r="1"/><circle cx="330" cy="50" r="1.8"/>
    <circle cx="480" cy="90" r="1"/><circle cx="620" cy="150" r="1.5"/><circle cx="720" cy="60" r="1"/>
    <circle cx="150" cy="250" r="1.2"/><circle cx="400" cy="300" r="1.6"/><circle cx="560" cy="340" r="1"/>
    <circle cx="680" cy="260" r="1.8"/><circle cx="60" cy="340" r="1"/><circle cx="270" cy="350" r="1.3"/>
    <circle cx="760" cy="340" r="1.2"/><circle cx="520" cy="200" r="1"/><circle cx="120" cy="160" r="1.4"/>
  </g>
  <g fill="#c9a86a" opacity="0.9">
    <circle cx="560" cy="110" r="2.2"/><circle cx="240" cy="200" r="1.8"/>
  </g>
  <path d="M0 330 Q 200 290 400 320 T 800 310 V400 H0 Z" fill="#060a12" opacity="0.9"/>
</svg>
